<svg width="1000" height="641" viewBox="0 0 1000 641" fill="none" xmlns="http://www.w3.org/2000/svg">
<g clip-path="url(#clip0)">
<rect width="1000" height="641" rx="20" fill="#444444"/>
<rect width="1000" height="70" fill="#333333"/>
<circle cx="40" cy="35" r="10" fill="white"/>
<circle cx="75" cy="35" r="10" fill="white"/>
<circle cx="110" cy="35" r="10" fill="white"/>
<rect x="160" y="111" width="810" height="100" rx="50" fill="white" fill-opacity="0.05"/>
<rect x="160" y="241" width="810" height="100" rx="50" fill="white" fill-opacity="0.05"/>
<rect x="160" y="371" width="810" height="100" rx="50" fill="white" fill-opacity="0.05"/>
<rect x="160" y="501" width="810" height="100" rx="50" fill="white" fill-opacity="0.05"/>
<path d="M30 166.327C30 193.941 52.3858 216.327 80 216.327C107.614 216.327 130 193.941 130 166.327C130 138.713 107.614 116.327 80 116.327C52.3858 116.327 30 138.713 30 166.327Z" fill="#555555"/>
<path d="M99.1199 212.184C99.1199 212.184 90.5883 216.916 78.5294 216.327C66.4706 215.739 59.7059 211.621 59.7059 211.621L59.7059 207.798L68.9148 205.423L82.8618 205.405L99.1199 212.184Z" fill="white"/>
<path d="M106.578 201.69L102.395 205.874L99.6053 198.436L102.637 195.873L106.578 201.69Z" fill="#FFB8B8"/>
<path d="M61.0224 129.637L64.2765 142.653L62.8818 161.712L75.433 171.474L79.6165 138.934L77.2924 131.032L61.0224 129.637Z" fill="#FFB8B8"/>
<path d="M72.6435 158.923L74.9677 146.372L79.6165 137.54L91.2377 184.49L64.7412 188.209L57.7682 150.556L63.7141 140.405L67.9953 148.231L72.6435 158.923Z" fill="white"/>
<path d="M69.8545 136.61C76.0161 136.61 81.011 131.615 81.011 125.453C81.011 119.292 76.0161 114.297 69.8545 114.297C63.6929 114.297 58.6979 119.292 58.6979 125.453C58.6979 131.615 63.6929 136.61 69.8545 136.61Z" fill="#FFB8B8"/>
<path d="M112.157 179.378L101.467 170.543L102.535 193.652L102.639 195.87L102.773 198.8L103.069 205.195V210.522C103.069 210.522 98.8236 213.68 91.7648 215.151C84.7059 216.621 80.8824 216.327 80.8824 216.327L78.6842 210.522L77.6471 216.327C77.6471 216.327 72.6471 216.033 67.9412 214.857C63.2353 213.68 56.673 210.522 56.673 210.522C56.5247 207.955 56.5395 209.758 56.673 206.634C56.7552 203.769 57.1205 200.919 57.7636 198.125C58.1631 196.226 58.9566 194.431 60.0931 192.858L55.9089 177.984L54.0468 187.279L41.0345 188.207C41.0345 188.207 41.042 187.969 41.0642 187.524V187.517C41.2497 182.939 42.6221 157.033 49.4028 151.952L63.2089 138.383C63.2089 138.383 63.2163 139.37 63.3498 141.031V141.039C63.4537 142.448 63.6466 144.34 63.9953 146.529V146.551C64.7742 151.484 66.3173 157.901 69.3886 163.569C70.5237 165.661 71.4436 167.442 72.1929 168.955C75.4348 175.521 75.4348 177.056 75.4348 177.056L76.7776 161.054L76.785 160.995L76.7925 160.936L78.5803 139.511L78.8474 136.313V136.306C78.8474 136.306 100.072 139.867 106.578 149.63C111.808 157.464 121.534 170.112 125.155 174.779C125.199 174.831 125.236 174.883 125.281 174.935L125.822 175.639C125.926 175.773 126.023 175.892 126.104 176.003C126.193 176.114 126.267 176.203 126.327 176.285L126.564 176.589L112.157 179.378Z" fill="#333333"/>
<path d="M76.3625 185.42C77.1327 185.42 77.757 184.796 77.757 184.025C77.757 183.255 77.1327 182.631 76.3625 182.631C75.5923 182.631 74.9679 183.255 74.9679 184.025C74.9679 184.796 75.5923 185.42 76.3625 185.42Z" fill="#2F2E41"/>
<path d="M78.2219 197.971C78.9921 197.971 79.6165 197.347 79.6165 196.576C79.6165 195.806 78.9921 195.182 78.2219 195.182C77.4517 195.182 76.8273 195.806 76.8273 196.576C76.8273 197.347 77.4517 197.971 78.2219 197.971Z" fill="#2F2E41"/>
<path d="M53.5847 203.55L57.7682 207.733L58.6982 198.436L55.9088 197.506L53.5847 203.55Z" fill="#FFB8B8"/>
<path d="M56.8386 116.868C56.8386 116.868 53.5846 112.74 56.8386 110.676V111.708C56.8386 111.708 63.8114 103.968 67.9951 106.032L71.7139 105V106.032L74.0382 105L73.5734 106.548H76.8273L75.4328 107.58C75.4328 107.58 86.1245 107.064 79.6165 114.804C79.6165 114.804 82.7099 119.444 79.7686 122.026C79.7686 122.026 77.2922 116.352 74.0382 117.9C73.1567 118.357 72.1623 118.552 71.1733 118.461C70.1843 118.369 69.2425 117.995 68.4599 117.384C68.4599 117.384 61.9519 116.868 62.8817 119.964C63.8114 123.06 63.3465 124.092 63.3465 124.092C63.3465 124.092 61.0222 125.64 61.4871 126.672C61.952 127.704 61.952 130.8 61.952 130.8C61.952 130.8 59.6277 127.188 58.698 127.704C57.7683 128.22 52.6549 123.06 56.8386 116.868Z" fill="#222222"/>
<path d="M42.8929 186.35L41.0334 187.541V188.674C41.1393 190.667 41.7818 192.594 42.8929 194.252C44.7523 197.041 54.9791 206.338 54.9791 206.338L57.7682 196.576L54.0494 187.279L51.7252 184.49L42.8929 186.35Z" fill="#333333"/>
<path d="M120.059 174.264L125.16 174.781L126.567 176.588C126.567 176.588 127.497 180.772 125.637 183.096C123.778 185.42 107.508 204.479 107.508 204.479L100.535 196.112L112.621 181.237L112.156 179.377L120.059 174.264Z" fill="#333333"/>
<path d="M130 298.15C129.998 307.19 127.547 316.059 122.908 323.817C118.269 331.575 111.615 337.931 103.653 342.211C103.056 342.535 102.449 342.845 101.833 343.141C95.0005 346.451 87.5045 348.164 79.9122 348.15C72.3199 348.137 64.8302 346.397 58.0093 343.062C56.8333 342.488 55.6852 341.868 54.5648 341.201C53.4259 340.535 52.3195 339.817 51.2454 339.058C44.182 334.092 38.5249 327.381 34.8247 319.58C31.1244 311.778 29.5072 303.152 30.1305 294.54C30.7537 285.928 33.5961 277.624 38.3811 270.436C43.166 263.249 49.7304 257.423 57.4352 253.525C60.4786 251.978 63.6749 250.753 66.9722 249.868C68.4259 249.474 69.9043 249.147 71.4074 248.887C74.2451 248.394 77.12 248.148 80 248.15C80.5926 248.15 81.1806 248.16 81.7685 248.187C82.1991 248.197 82.6296 248.215 83.0602 248.243C87.5612 248.512 92.0047 249.392 96.2685 250.859C96.6343 250.984 97 251.113 97.3611 251.248C98.6204 251.711 99.8519 252.226 101.056 252.794C109.703 256.807 117.022 263.21 122.151 271.246C127.279 279.282 130.002 288.617 130 298.15Z" fill="#555555"/>
<path d="M99.5159 247.021C94.9669 236.287 83.3871 234.26 83.3871 234.26C83.3871 234.26 72.2375 231.286 62.9261 245.452C54.2471 258.655 43.055 271.026 57.2488 276.296L60.9981 268.422L61.4479 277.484C63.5118 277.914 65.5978 278.23 67.6964 278.432C83.44 280.032 98.2809 282.691 98.5557 277.001C98.9211 269.438 103.893 257.348 99.5159 247.021Z" fill="#222222"/>
<path d="M59.0834 334.498L58.713 337.47L58.0093 343.062C56.8334 342.488 55.6852 341.868 54.5649 341.201C53.426 340.535 52.3195 339.817 51.2454 339.058L51.3565 336.173L51.4815 332.974L56.6204 334.007L59.0834 334.498Z" fill="#FFB8B8"/>
<path d="M110.81 337.534C108.562 339.294 106.168 340.859 103.653 342.21L101.227 333.808L100.907 332.701L100.111 329.937L100.968 329.803L109.736 328.419L110.019 330.803L110.81 337.534Z" fill="#FFB8B8"/>
<path d="M83.3949 269.153C90.9481 269.153 97.0712 263.03 97.0712 255.477C97.0712 247.924 90.9481 241.801 83.3949 241.801C75.8418 241.801 69.7187 247.924 69.7187 255.477C69.7187 263.03 75.8418 269.153 83.3949 269.153Z" fill="#FFB8B8"/>
<path d="M74.0241 260.796C74.0241 260.796 75.0372 278.018 71.998 279.031C68.9589 280.044 87.7004 279.031 87.7004 279.031C87.7004 279.031 85.1678 268.394 87.7004 265.354C90.233 262.315 74.0241 260.796 74.0241 260.796Z" fill="#FFB8B8"/>
<path d="M87.9537 276.245C87.9537 276.245 74.784 275.232 72.2513 276.245C69.7187 277.258 62.6273 282.323 62.6273 282.323L66.173 314.234L95.0451 320.313L99.6038 313.728L104.163 304.104L102.136 291.947L101.63 284.856L87.9537 276.245Z" fill="#D0CDE1"/>
<path d="M60.0946 284.349C60.0946 284.349 53.5097 285.869 53.0032 290.934C52.4967 295.999 52.4967 308.662 53.0032 310.689C53.5097 312.715 53.0032 313.728 52.4967 314.234C51.9902 314.741 50.9771 313.728 51.9902 315.247C53.0032 316.767 53.0032 316.767 52.4967 318.286C51.9902 319.806 50.4706 317.78 51.4836 320.313C52.4967 322.845 53.0032 323.352 52.4967 323.858C51.9902 324.365 50.4706 336.015 50.4706 336.015L59.0815 337.535L67.6925 307.649L60.0946 284.349Z" fill="#D0CDE1"/>
<path d="M99.6038 284.349C100.566 284.403 101.496 284.713 102.297 285.247C103.099 285.782 103.743 286.521 104.163 287.388C105.682 290.427 109.734 310.182 109.228 311.702C108.721 313.221 107.708 311.195 108.721 314.234C109.734 317.273 108.721 316.767 109.228 318.793C109.734 320.819 107.202 318.793 109.228 320.819C111.254 322.845 112.267 323.352 111.254 324.365C110.241 325.378 108.721 323.352 110.241 325.378C111.76 327.404 111.76 330.443 111.76 330.443L99.6038 332.976L96.0581 304.61L99.6038 284.349Z" fill="#D0CDE1"/>
<path d="M101.227 333.808L101.833 343.141C95.0006 346.451 87.5046 348.164 79.9123 348.15C72.32 348.136 64.8302 346.397 58.0093 343.062C56.8334 342.488 55.6853 341.868 54.5649 341.201C54.9538 339.771 55.3473 338.345 55.7501 336.946C56.0371 335.951 56.3272 334.971 56.6204 334.007C58.8936 326.567 61.3427 320.238 63.639 317.78C63.639 317.78 63.639 312.21 64.6528 311.701C65.1402 311.319 65.512 310.81 65.7269 310.229C66.1043 309.392 66.423 308.531 66.6806 307.65L65.0047 303.752L57.5047 286.289C57.2912 285.79 57.2763 285.227 57.4629 284.717C57.6496 284.207 58.0238 283.787 58.5093 283.544L60.9954 282.298C61.2473 282.173 61.5214 282.099 61.802 282.08C62.0826 282.062 62.3641 282.099 62.6304 282.189C62.8967 282.279 63.1425 282.421 63.3537 282.607C63.5649 282.793 63.7374 283.018 63.8612 283.271L75.2917 306.636L87.9538 314.743L96.8334 310.794L97.0695 310.687C97.0695 310.687 103.657 300.558 101.63 295.493C100.764 293.331 99.8102 290.442 98.9908 287.835C98.5139 286.298 98.088 284.858 97.7547 283.729C97.7022 283.549 97.7061 283.358 97.766 283.181C97.8259 283.004 97.9389 282.85 98.0895 282.739C98.2402 282.628 98.4212 282.566 98.6081 282.562C98.795 282.558 98.9787 282.611 99.1343 282.715L100.861 283.868C101.253 284.13 101.562 284.498 101.755 284.928C101.835 285.096 101.894 285.273 101.931 285.456L105.681 303.599L100.616 314.233V324.363L100.968 329.803L101.153 332.65L101.227 333.808Z" fill="#333333"/>
<path d="M96.944 243.121L85.3389 237.042L69.313 239.529L65.9973 254.173L74.251 253.856L76.557 248.476V253.767L80.3653 253.621L82.5759 245.055L83.9574 254.173L97.4968 253.898L96.944 243.121Z" fill="#222222"/>
<path d="M69.4654 258.136C70.3046 258.136 70.985 256.946 70.985 255.477C70.985 254.008 70.3046 252.818 69.4654 252.818C68.6261 252.818 67.9458 254.008 67.9458 255.477C67.9458 256.946 68.6261 258.136 69.4654 258.136Z" fill="#FFB8B8"/>
<path d="M119.627 427.479C119.627 447.044 106.411 463.602 88.1992 469.143C85.5103 469.966 82.7498 470.534 79.9544 470.84C78.2474 471.032 76.531 471.127 74.8133 471.127C74.1743 471.127 73.5394 471.115 72.9087 471.082H72.9004C66.4934 470.833 60.2117 469.23 54.4689 466.378C50.4347 464.375 46.7251 461.775 43.4647 458.667C39.2176 454.657 35.833 449.824 33.5179 444.461C31.2027 439.099 30.0057 433.32 30 427.479C30 408.982 41.8133 393.172 58.4938 386.818C60.4896 386.055 62.5378 385.437 64.6224 384.967C72.3036 383.232 80.3011 383.489 87.8548 385.715C88.4274 385.877 88.9959 386.059 89.5561 386.253C89.5602 386.253 89.5644 386.257 89.5685 386.257C90.9161 386.71 92.2401 387.23 93.5353 387.817C93.9793 388.011 94.4233 388.217 94.859 388.435C95.7303 388.855 96.585 389.307 97.4232 389.789C97.7469 389.971 98.0664 390.157 98.3818 390.351C103.529 393.449 107.997 397.556 111.515 402.427C114.714 406.854 117.038 411.853 118.361 417.154C119.205 420.53 119.63 423.999 119.627 427.479Z" fill="#555555"/>
<path d="M123.165 356.671L129.3 354.808L129.829 349.546C129.829 349.546 114.908 344.056 110.138 353.767C108.453 357.195 106.331 359.254 104.289 360.483C102.88 361.299 101.307 361.792 99.685 361.928C98.0626 362.064 96.4301 361.84 94.9047 361.271C84.5637 357.592 82.1285 368.053 82.1285 368.053C82.1285 368.053 83.0224 369.542 89.3968 369.908C92.5691 370.09 95.1648 372.415 96.9722 374.705C100.842 379.609 108.792 378.192 110.744 372.306C110.775 372.211 110.806 372.115 110.837 372.018C113.886 362.289 127.768 370.035 127.768 370.035L128.655 361.223L123.165 356.671Z" fill="#222222"/>
<path d="M81.3646 380.486C85.5143 380.486 88.8783 377.21 88.8783 373.168C88.8783 369.126 85.5143 365.85 81.3646 365.85C77.2148 365.85 73.8508 369.126 73.8508 373.168C73.8508 377.21 77.2148 380.486 81.3646 380.486Z" fill="#222222"/>
<path d="M77.6077 412.199C88.6736 412.199 97.6443 403.462 97.6443 392.684C97.6443 381.906 88.6736 373.168 77.6077 373.168C66.5417 373.168 57.571 381.906 57.571 392.684C57.571 403.462 66.5417 412.199 77.6077 412.199Z" fill="#222222"/>
<path d="M76.9816 413.215C84.5894 413.215 90.7567 407.208 90.7567 399.798C90.7567 392.389 84.5894 386.382 76.9816 386.382C69.3737 386.382 63.2064 392.389 63.2064 399.798C63.2064 407.208 69.3737 413.215 76.9816 413.215Z" fill="#A0616A"/>
<path d="M71.555 409.963L74.0596 422.973L86.5825 421.347C86.5825 421.347 84.4953 411.182 85.7476 408.336L71.555 409.963Z" fill="#A0616A"/>
<path d="M96.1833 381.503C96.1833 381.503 86.165 374.185 81.9907 377.031C77.8164 379.877 93.2613 389.228 94.931 388.415C96.6007 387.601 96.1833 381.503 96.1833 381.503Z" fill="#A0616A"/>
<path d="M105.784 436.795C105.786 436.862 105.783 436.93 105.776 436.997V437.001C105.519 442.813 94.5353 460.599 88.1992 469.143C85.5103 469.966 82.7499 470.534 79.9544 470.84C78.2474 471.032 76.531 471.127 74.8133 471.127C74.1743 471.127 73.5394 471.115 72.9087 471.082H72.9004C67.0664 469.248 60.1369 466.839 55.083 464.94C52.7012 464.038 50.7344 463.254 49.4979 462.696C49.0376 462.508 48.5958 462.276 48.1785 462.005C46.0913 460.377 50.6846 459.156 52.7718 458.752C54.8589 458.344 51.9378 453.874 51.9378 453.874C44.4232 446.147 53.6058 439.644 53.6058 439.644C53.6058 439.644 57.361 431.917 57.361 429.884C57.3711 429.733 57.4277 429.589 57.5229 429.472C59.0954 427.306 71.556 423.381 71.556 423.381V416.875L72.8465 416.664L85.5436 414.603L86.5809 414.434L88.6681 417.687L97.8548 418.907C97.8548 418.907 105.784 429.48 105.784 436.795Z" fill="#333333"/>
<path d="M66.1287 436.795C66.1287 436.795 60.6266 451.651 55.6017 463.691C55.4274 464.111 55.2531 464.527 55.083 464.939C54.8755 465.424 54.6722 465.905 54.4689 466.378C50.4347 464.375 46.7251 461.775 43.4647 458.667C45.722 451.518 49.3029 440.157 50.6847 435.578C52.2075 430.531 55.7303 429.605 57.5229 429.472C57.886 429.438 58.2515 429.441 58.6141 429.48L66.1287 436.795Z" fill="#333333"/>
<path d="M96.6007 420.127L97.853 418.907C97.853 418.907 113.715 402.238 113.298 398.172C113.298 398.172 104.949 388.008 94.5136 390.854C94.5136 390.854 89.9218 379.877 97.0181 380.283C104.114 380.69 130.413 379.064 129.995 390.854C129.578 402.645 104.532 438.829 104.532 438.829L96.6007 420.127Z" fill="#333333"/>
<path d="M79.9544 470.84C78.2474 471.032 76.531 471.127 74.8133 471.127C74.1743 471.127 73.5394 471.115 72.9087 471.082H72.9004C66.4933 470.833 60.2117 469.23 54.4689 466.378C52.6427 465.472 50.8806 464.441 49.195 463.295L49.4979 462.696V462.692L49.8506 462.005L55.6016 463.691L79.9544 470.84Z" fill="#333333"/>
<path d="M90.6931 393.62C92.1345 389.117 87.4444 383.592 80.2176 381.278C72.9907 378.965 65.9637 380.739 64.5223 385.242C63.0809 389.745 67.7709 395.27 74.9978 397.584C82.2247 399.897 89.2517 398.123 90.6931 393.62Z" fill="#222222"/>
<path d="M30 551.629C29.9991 554.187 30.1932 556.741 30.5806 559.269C32.4429 571.213 38.5841 582.072 47.8598 589.823C48.1132 590.035 48.3712 590.247 48.6339 590.455C49.1776 590.892 49.7305 591.318 50.2927 591.731C51.1037 592.33 51.9331 592.903 52.7809 593.45C59.4461 597.744 67.0396 600.386 74.9309 601.157C82.8221 601.928 90.7834 600.805 98.1538 597.882C98.504 597.744 98.8541 597.601 99.1997 597.454C99.7527 597.219 100.296 596.975 100.84 596.716C102.218 596.076 103.562 595.371 104.872 594.602C106.222 593.814 107.528 592.966 108.789 592.058C109.364 591.643 109.922 591.224 110.48 590.786L110.489 590.782C117.861 584.992 123.454 577.242 126.625 568.42V568.415C130.416 557.802 130.496 546.218 126.854 535.552C123.212 524.887 116.063 515.772 106.572 509.694C106.134 509.417 105.692 509.141 105.245 508.883C104.784 508.597 104.314 508.33 103.84 508.072C97.4524 504.527 90.3577 502.445 83.0679 501.976C81.9758 501.902 80.8746 501.865 79.7641 501.865C79.7088 501.865 79.6535 501.865 79.5982 501.87C78.1053 501.87 76.6308 501.939 75.1747 502.077C62.8237 503.221 51.3451 508.936 42.9884 518.102C34.6318 527.269 29.9997 539.225 30 551.629Z" fill="#555555"/>
<path d="M131.054 568.719C131.054 568.719 145.588 553.7 149.464 562.905C153.34 572.11 134.93 576.955 134.93 576.955L131.054 568.719Z" fill="#FFB8B8"/>
<path d="M48.6339 590.455C49.1776 590.892 49.7305 591.318 50.2926 591.731C51.1036 592.33 51.933 592.903 52.7809 593.45C59.4461 597.744 67.0396 600.387 74.9308 601.157C82.8221 601.928 90.7834 600.806 98.1537 597.882C98.5039 597.744 98.8541 597.601 99.1997 597.454C99.7526 597.219 100.296 596.975 100.84 596.717L99.5637 594.883C98.6383 594.017 97.6016 593.277 96.4811 592.685C87.7494 587.943 71.3042 588.091 60.1764 588.87C58.5913 588.98 57.1168 589.105 55.7898 589.229C54.9604 589.303 54.1863 589.381 53.4813 589.455C53.1956 589.487 52.9237 589.515 52.6657 589.542C50.1821 589.819 48.6938 590.035 48.6938 590.035L48.6339 590.455Z" fill="#333333"/>
<path d="M91.3382 523.276C99.0273 523.276 105.261 517.043 105.261 509.354C105.261 501.665 99.0273 495.431 91.3382 495.431C83.6491 495.431 77.4158 501.665 77.4158 509.354C77.4158 517.043 83.6491 523.276 91.3382 523.276Z" fill="#FFB8B8"/>
<path d="M82.1226 513.974L71.9487 524.632L69.0419 541.104L94.7188 545.464L92.7809 530.446C92.7809 530.446 93.2653 523.179 95.2032 521.725C97.1411 520.272 82.1226 513.974 82.1226 513.974Z" fill="#FFB8B8"/>
<path d="M52.0851 591.491C52.9345 591.218 53.7972 590.989 54.6701 590.805C56.8666 590.327 59.1006 590.042 61.3467 589.952C66.6622 589.672 71.9652 590.699 76.792 592.943C83.8512 596.329 92.2281 597.251 97.9878 597.426C98.4072 597.44 98.8126 597.449 99.1997 597.454C99.7526 597.219 100.296 596.975 100.84 596.717C102.218 596.076 103.562 595.371 104.872 594.602L104.853 592.897L104.549 559.168V559.163L104.406 543.04L95.2048 532.383L92.841 529.719L91.7167 530.728L85.0308 536.746L75.2853 527.72L71.9492 524.632L55.9464 578.502L53.8821 585.451L52.6657 589.542L52.4767 590.169V590.173L52.0851 591.491Z" fill="#444444"/>
<path d="M89.2654 544.538C89.2886 546.958 89.4919 549.373 89.8736 551.763C91.5324 562.356 92.9562 579.967 96.4812 592.685C96.942 594.362 97.4442 595.947 97.9879 597.426L98.1538 597.882C98.504 597.744 98.8542 597.601 99.1998 597.454C99.7527 597.219 100.296 596.974 100.84 596.716C102.218 596.076 103.562 595.371 104.872 594.601C106.222 593.814 107.528 592.966 108.789 592.058L108.641 591.477V591.473L106.346 582.285C106.346 582.285 107.821 574.594 109.001 565.992V565.987C110.355 556.14 111.323 545.109 109.254 543.04L93.0207 528.189L93.0161 528.194C92.5104 529 92.0756 529.848 91.7167 530.728C90.6109 533.35 89.2101 537.976 89.2654 544.538Z" fill="#333333"/>
<path d="M38.7594 579.829C41.3243 583.559 44.386 586.921 47.8598 589.823C48.1132 590.035 48.3712 590.247 48.6339 590.454C49.1776 590.892 49.7305 591.318 50.2927 591.731C51.1037 592.33 51.9331 592.903 52.7809 593.45C53.4076 592.579 54.0388 591.694 54.6701 590.805C55.0433 590.284 55.4165 589.759 55.7898 589.229C56.3796 588.39 56.9694 587.547 57.5499 586.699C57.6237 586.598 57.6928 586.496 57.7619 586.395C58.4992 585.331 59.2272 584.262 59.9368 583.197C65.1712 575.378 69.5118 567.872 70.0094 563.388C70.6084 558.02 71.8203 549.717 73.0505 541.787C73.8431 536.636 74.6448 531.641 75.2853 527.719C76.0594 522.955 76.5939 519.766 76.5939 519.766C76.5939 519.766 51.205 517.228 47.6478 519.72H47.6432C47.5411 519.779 47.4526 519.859 47.3835 519.954C47.3144 520.049 47.2663 520.158 47.2423 520.273C46.8553 522.973 48.9288 548.067 49.7858 558.205V558.209C50.007 560.808 50.1498 562.421 50.1498 562.421C50.1498 562.421 48.6984 564.361 46.5696 567.471C44.3993 570.646 41.5195 575.037 38.7594 579.829Z" fill="#333333"/>
<path d="M107.799 556.607L110.222 575.501L131.538 566.297L138.321 580.346L103.439 593.427C103.439 593.427 97.1411 559.998 107.799 556.607Z" fill="#333333"/>
<path d="M105.248 511.901C105.248 511.901 107.14 509.858 106.949 507.301C106.822 505.846 106.915 504.38 107.225 502.953C107.225 502.953 106.633 498.767 105.758 496.34C104.884 493.914 105.621 493.07 101.863 491.745C98.1042 490.42 100.497 485.63 89.4159 489.448C88.9945 489.874 88.4565 490.165 87.8697 490.285C87.283 490.405 86.6738 490.348 86.1191 490.123C84.0733 489.373 82.8405 492.184 82.8405 492.184C82.8405 492.184 81.5644 491.137 80.8484 492.225C80.1324 493.314 76.6694 490.833 75.3995 498.752C74.1296 506.67 78.489 513.732 78.489 513.732C78.489 513.732 79.1007 501.06 86.2971 500.83C93.4935 500.601 101.632 497.875 102.641 503.211C103.168 506.199 104.043 509.116 105.248 511.901Z" fill="#222222"/>
<path d="M47.8598 589.823C48.1132 590.035 48.3713 590.247 48.6339 590.455C49.1776 590.892 49.7306 591.318 50.2927 591.731C51.1037 592.33 51.9331 592.903 52.7809 593.45C56.8634 596.091 61.3133 598.116 65.9868 599.458C67.1296 596.528 64.3925 592.883 61.3468 589.952C60.9598 589.579 60.5635 589.215 60.1764 588.87C59.2549 588.054 58.3471 587.317 57.55 586.699C57.5131 586.672 57.4809 586.649 57.4486 586.621C55.9419 585.46 54.8498 584.746 54.8498 584.746L53.8822 585.451L47.8598 589.823Z" fill="#FFB8B8"/>
<path d="M30.5806 559.269C32.4429 571.213 38.5841 582.072 47.8598 589.823C48.1132 590.035 48.3712 590.247 48.6339 590.455C49.1776 590.892 49.7305 591.318 50.2927 591.731L52.4768 590.174V590.169L53.4813 589.455L57.4486 586.621L57.7619 586.395L60.8076 584.22L59.9368 583.197L55.9464 578.502L46.5696 567.471L44.3348 564.845L49.7858 558.209V558.205L55.4764 551.279L50.6336 520.273C49.7165 519.793 48.676 519.601 47.6478 519.72H47.6432C46.5465 519.909 45.4269 520.665 44.8186 522.692C43.7174 526.365 34.8243 548.68 30.5806 559.269Z" fill="#333333"/>
</g>
<defs>
<clipPath id="clip0">
<rect width="1000" height="641" rx="20" fill="white"/>
</clipPath>
</defs>
</svg>
